<svg width="18" height="18" viewBox="0 0 18 18" fill="none" xmlns="http://www.w3.org/2000/svg">
<path d="M9 5.75H1.7002V10.125H15.2998V8H17V18H0V4H9V5.75ZM1.7002 16.25H5.09961V11.875H1.7002V16.25ZM6.7998 16.25H15.2998V11.875H6.7998V16.25Z" fill="white"/>
<path fill-rule="evenodd" clip-rule="evenodd" d="M17.1337 3.57558C16.5296 3.3184 15.9803 2.94795 15.5154 2.48422C14.868 1.83557 14.4062 1.02539 14.1779 0.137863C14.1678 0.0984443 14.145 0.063489 14.1129 0.0385219C14.0808 0.0135548 14.0412 0 14.0006 0C13.9599 0 13.9204 0.0135548 13.8883 0.0385219C13.8562 0.063489 13.8333 0.0984443 13.8233 0.137863C13.5945 1.02527 13.1325 1.83536 12.4854 2.48422C12.0205 2.94789 11.4712 3.31833 10.8671 3.57558C10.6307 3.67741 10.3877 3.75923 10.139 3.82215C10.0993 3.83189 10.0641 3.85465 10.0389 3.88679C10.0137 3.91893 10 3.95859 10 3.99943C10 4.04027 10.0137 4.07993 10.0389 4.11207C10.0641 4.14421 10.0993 4.16697 10.139 4.17672C10.3877 4.23927 10.6299 4.32109 10.8671 4.42292C11.4712 4.6801 12.0205 5.05056 12.4854 5.51428C13.1329 6.163 13.5949 6.97332 13.8233 7.861C13.833 7.90066 13.8558 7.93591 13.8879 7.96111C13.9201 7.98631 13.9597 8 14.0006 8C14.0414 8 14.0811 7.98631 14.1132 7.96111C14.1453 7.93591 14.1681 7.90066 14.1779 7.861C14.2404 7.61189 14.3222 7.36969 14.4241 7.13258C14.6812 6.52844 15.0517 5.97912 15.5154 5.51428C16.1642 4.86688 16.9745 4.40504 17.8621 4.17672C17.9016 4.1667 17.9365 4.14383 17.9615 4.11172C17.9864 4.07962 18 4.0401 18 3.99943C18 3.95876 17.9864 3.91925 17.9615 3.88714C17.9365 3.85504 17.9016 3.83216 17.8621 3.82215C17.6131 3.7595 17.3696 3.67705 17.1337 3.57558Z" fill="white"/>
</svg>
