<svg width="18" height="19" viewBox="0 0 18 19" fill="none" xmlns="http://www.w3.org/2000/svg">
<path fill-rule="evenodd" clip-rule="evenodd" d="M13.3757 6.70422C12.243 6.22199 11.213 5.5274 10.3414 4.65792C9.12759 3.44169 8.26162 1.9226 7.83348 0.258493C7.81469 0.184583 7.77181 0.119042 7.71161 0.0722286C7.65141 0.0254152 7.57732 0 7.50106 0C7.42481 0 7.35072 0.0254152 7.29052 0.0722286C7.23032 0.119042 7.18744 0.184583 7.16865 0.258493C6.7396 1.92238 5.8735 3.4413 4.66005 4.65792C3.78837 5.52729 2.75842 6.22188 1.62573 6.70422C1.18251 6.89514 0.727023 7.04856 0.260623 7.16652C0.18626 7.18479 0.120171 7.22747 0.0729236 7.28773C0.0256764 7.348 0 7.42236 0 7.49894C0 7.57551 0.0256764 7.64987 0.0729236 7.71014C0.120171 7.7704 0.18626 7.81308 0.260623 7.83135C0.727023 7.94863 1.18115 8.10205 1.62573 8.29297C2.75848 8.77519 3.78846 9.46979 4.66005 10.3393C5.87419 11.5556 6.74039 13.075 7.16865 14.7394C7.18692 14.8137 7.2296 14.8798 7.28986 14.9271C7.35013 14.9743 7.42449 15 7.50106 15C7.57764 15 7.652 14.9743 7.71227 14.9271C7.77253 14.8798 7.81521 14.8137 7.83348 14.7394C7.95076 14.2723 8.10418 13.8182 8.2951 13.3736C8.7773 12.2408 9.47189 11.2108 10.3414 10.3393C11.5579 9.12541 13.0772 8.25944 14.7415 7.83135C14.8154 7.81256 14.881 7.76968 14.9278 7.70948C14.9746 7.64928 15 7.57519 15 7.49894C15 7.42268 14.9746 7.34859 14.9278 7.28839C14.881 7.22819 14.8154 7.18531 14.7415 7.16652C14.2747 7.04907 13.8179 6.89447 13.3757 6.70422Z" fill="white"/>
<path fill-rule="evenodd" clip-rule="evenodd" d="M17.3503 15.1286C16.8972 14.9036 16.4852 14.5795 16.1366 14.1737C15.651 13.6061 15.3046 12.8972 15.1334 12.1206C15.1259 12.0861 15.1087 12.0556 15.0846 12.0337C15.0606 12.0119 15.0309 12 15.0004 12C14.9699 12 14.9403 12.0119 14.9162 12.0337C14.8921 12.0556 14.875 12.0861 14.8675 12.1206C14.6958 12.8971 14.3494 13.6059 13.864 14.1737C13.5153 14.5794 13.1034 14.9035 12.6503 15.1286C12.473 15.2177 12.2908 15.2893 12.1042 15.3444C12.0745 15.3529 12.0481 15.3728 12.0292 15.4009C12.0103 15.4291 12 15.4638 12 15.4995C12 15.5352 12.0103 15.5699 12.0292 15.5981C12.0481 15.6262 12.0745 15.6461 12.1042 15.6546C12.2908 15.7094 12.4725 15.781 12.6503 15.8701C13.1034 16.0951 13.5154 16.4192 13.864 16.825C14.3497 17.3926 14.6962 18.1017 14.8675 18.8784C14.8748 18.9131 14.8918 18.9439 14.9159 18.966C14.9401 18.988 14.9698 19 15.0004 19C15.0311 19 15.0608 18.988 15.0849 18.966C15.109 18.9439 15.1261 18.9131 15.1334 18.8784C15.1803 18.6604 15.2417 18.4485 15.318 18.241C15.5109 17.7124 15.7888 17.2317 16.1366 16.825C16.6231 16.2585 17.2309 15.8544 17.8966 15.6546C17.9262 15.6459 17.9524 15.6259 17.9711 15.5978C17.9898 15.5697 18 15.5351 18 15.4995C18 15.4639 17.9898 15.4293 17.9711 15.4012C17.9524 15.3732 17.9262 15.3531 17.8966 15.3444C17.7099 15.2896 17.5272 15.2174 17.3503 15.1286Z" fill="white"/>
</svg>
